<?xml version="1.0" standalone="no"?>
<!DOCTYPE svg PUBLIC "-//W3C//DTD SVG 20010904//EN"
 "http://www.w3.org/TR/2001/REC-SVG-20010904/DTD/svg10.dtd">
<svg version="1.0" xmlns="http://www.w3.org/2000/svg"
 width="1080.000000pt" height="1080.000000pt" viewBox="0 0 1080.000000 1080.000000"
 preserveAspectRatio="xMidYMid meet">
<metadata>
Created by potrace 1.16, written by Peter Selinger 2001-2019
</metadata>
<g transform="translate(0.000000,1080.000000) scale(0.100000,-0.100000)"
fill="#000000" stroke="none">
<path d="M6110 8154 c-103 -22 -218 -83 -296 -157 -82 -77 -136 -163 -169
-272 -14 -44 -63 -312 -110 -595 -47 -283 -94 -542 -105 -574 -33 -98 -96
-195 -187 -283 -46 -46 -87 -83 -92 -83 -4 0 23 154 61 343 80 407 88 468 64
532 -20 51 -47 69 -118 80 -82 12 -143 -20 -173 -92 -16 -38 -54 -230 -89
-448 -14 -82 -34 -171 -45 -197 -43 -100 -147 -179 -258 -194 -73 -9 -134 19
-164 78 -35 66 -29 136 54 609 79 452 91 497 156 571 40 46 123 88 173 88 67
0 93 -21 123 -100 16 -43 38 -79 56 -95 77 -64 197 -52 263 25 57 68 57 176 0
290 -108 214 -385 300 -644 198 -180 -71 -318 -219 -380 -408 -27 -84 -180
-1019 -180 -1102 1 -275 166 -463 428 -485 l74 -6 -125 -64 c-204 -105 -300
-197 -333 -320 -37 -137 14 -287 128 -373 64 -48 128 -71 219 -77 245 -18 482
140 558 370 11 34 34 139 51 232 32 182 30 179 105 217 130 67 308 218 400
340 l36 48 52 -35 c88 -58 157 -77 282 -79 130 -1 190 12 302 65 180 86 307
242 366 449 9 30 52 271 97 535 95 558 97 601 43 715 -99 204 -360 311 -623
254z m227 -300 c84 -63 87 -105 34 -424 -139 -825 -141 -836 -217 -919 -50
-56 -106 -84 -169 -84 -104 -1 -174 67 -175 171 0 69 167 1044 190 1104 25 68
77 129 132 157 57 28 164 26 205 -5z m-1668 -2308 c-24 -130 -54 -179 -122
-205 -70 -27 -117 1 -117 69 0 53 20 90 67 128 43 34 162 102 179 102 8 0 5
-30 -7 -94z"/>
<path d="M5345 4981 c-340 -87 -563 -357 -615 -747 -21 -160 18 -291 113 -382
100 -94 197 -125 382 -124 391 2 687 245 791 650 22 84 25 113 21 217 -5 140
-19 182 -90 261 -54 60 -139 108 -228 129 -89 21 -284 19 -374 -4z m227 -192
c32 -42 26 -146 -17 -317 -71 -280 -153 -481 -220 -540 -30 -27 -44 -32 -85
-32 -67 0 -84 25 -82 118 2 115 106 496 175 641 32 68 88 138 122 152 38 16
87 6 107 -22z"/>
<path d="M6718 4989 c-218 -25 -413 -160 -505 -349 -160 -327 -147 -625 35
-791 71 -65 143 -99 230 -107 146 -15 273 23 359 108 l42 42 11 -43 c6 -23 24
-55 40 -71 27 -26 34 -28 110 -28 125 0 127 2 184 205 80 281 69 256 130 293
30 18 64 44 75 59 22 27 28 77 12 88 -14 8 -589 17 -634 9 -45 -7 -72 -41 -63
-79 5 -19 24 -33 74 -58 62 -30 67 -35 70 -67 5 -50 -27 -148 -59 -180 -61
-60 -172 -37 -213 45 -59 115 21 467 139 611 41 50 106 84 160 84 54 0 109
-36 189 -125 38 -43 83 -86 100 -96 38 -23 94 -24 124 -3 32 22 46 54 86 194
49 168 48 208 -5 235 -63 33 -148 10 -229 -63 l-45 -40 -46 34 c-59 43 -147
82 -202 89 -85 12 -103 12 -169 4z"/>
<path d="M2375 4973 c-29 -7 -55 -33 -55 -54 0 -10 9 -33 20 -51 11 -18 20
-44 20 -58 0 -28 -234 -860 -250 -890 -6 -11 -30 -33 -55 -50 -55 -38 -68 -75
-35 -102 21 -17 52 -18 492 -18 514 0 556 4 668 60 58 29 127 96 154 148 25
49 47 157 40 200 -11 70 -54 134 -111 167 -29 17 -52 33 -53 36 0 4 14 9 30
13 104 20 214 113 245 206 17 51 22 143 9 182 -24 79 -111 153 -224 190 -62
21 -85 22 -470 24 -223 1 -414 0 -425 -3z m617 -190 c31 -31 34 -91 8 -167
-36 -109 -88 -146 -209 -146 -46 0 -53 2 -49 18 3 9 25 86 49 171 l43 153 69
-5 c51 -3 74 -10 89 -24z m-137 -535 c22 -20 26 -32 26 -78 1 -67 -31 -157
-70 -199 -34 -36 -93 -53 -170 -49 l-58 3 50 173 50 172 73 0 c61 0 77 -4 99
-22z"/>
<path d="M3771 4967 c-45 -16 -55 -45 -30 -91 10 -20 19 -52 19 -71 0 -32
-216 -819 -240 -872 -5 -13 -32 -39 -60 -59 -60 -43 -74 -79 -40 -106 21 -17
52 -18 512 -18 547 0 538 -1 583 69 27 42 95 274 95 324 0 60 -63 92 -147 75
-36 -8 -54 -22 -115 -90 -40 -45 -96 -107 -125 -137 l-52 -56 -92 -4 c-85 -3
-92 -2 -87 15 3 11 58 206 123 434 l118 415 59 58 c65 64 72 92 28 114 -34 17
-500 17 -549 0z"/>
</g>
</svg>
